<svg xmlns="http://www.w3.org/2000/svg" version="1.1" xmlns:xlink="http://www.w3.org/1999/xlink" width="512" height="512" x="0" y="0" viewBox="0 0 100 100" style="enable-background:new 0 0 512 512" xml:space="preserve"><g><path d="M96.138 38.915a2.501 2.501 0 0 0-2.245-1.401h-8.938a2.5 2.5 0 0 0-2.5 2.5v5.296h-3.557v-5.308a2.5 2.5 0 0 0-2.488-2.5l-5.509-.026-3.435-7.789a2.5 2.5 0 0 0-2.287-1.491H51.754v-6.403h7.056a2.5 2.5 0 1 0 0-5H29.145a2.5 2.5 0 1 0 0 5h8.624v6.403H26.008a2.5 2.5 0 0 0-2.177 1.271l-2.515 4.457h-1.713c-4.531 0-8.217 3.686-8.217 8.217v5.451H5.614c-.213 0-.416.035-.614.085V34.261a2.5 2.5 0 1 0-5 0v30.805a2.5 2.5 0 1 0 5 0v-12.56c.197.05.401.085.614.085h5.771V64.71c0 4.59 3.734 8.323 8.324 8.323h8.021l9.441 9.44a2.498 2.498 0 0 0 1.768.732h37.46a2.5 2.5 0 0 0 2.5-2.5v-7.201l3.557-.007v4.721a2.5 2.5 0 0 0 2.496 2.5l9.128.016h.004a2.5 2.5 0 0 0 2.24-1.39c.15-.304 3.677-7.57 3.677-20.557-.001-11.848-3.705-19.551-3.863-19.872zM42.769 21.793h3.985v6.403h-3.985zm49.634 53.938-4.948-.009v-4.729a2.5 2.5 0 0 0-2.5-2.5h-.004l-8.557.015a2.5 2.5 0 0 0-2.496 2.5v7.197H39.974l-9.441-9.44a2.498 2.498 0 0 0-1.768-.732h-9.056a3.327 3.327 0 0 1-3.324-3.323V42.141a3.22 3.22 0 0 1 3.217-3.217h3.173a2.5 2.5 0 0 0 2.177-1.271l2.515-4.457H63.55l3.431 7.78a2.499 2.499 0 0 0 2.275 1.492l4.643.022v5.32a2.5 2.5 0 0 0 2.5 2.5h8.557a2.5 2.5 0 0 0 2.5-2.5v-5.296h4.774C93.189 45.05 95 50.883 95 58.788c0 8.607-1.69 14.435-2.597 16.943z" fill="#ffffff" opacity="1" data-original="#000000"></path></g></svg>