<svg xmlns="http://www.w3.org/2000/svg" version="1.1" xmlns:xlink="http://www.w3.org/1999/xlink" width="512" height="512" x="0" y="0" viewBox="0 0 607.796 607.796" style="enable-background:new 0 0 512 512" xml:space="preserve" class=""><g><path fill-rule="evenodd" d="M303.898 607.796c167.838 0 303.898-136.06 303.898-303.898S471.736 0 303.898 0 0 136.06 0 303.898s136.06 303.898 303.898 303.898zm63.935-80.416c-9.379 2.678-19.173-2.655-22.012-11.987-4.077-13.402-6.171-27.406-6.171-41.67 0-78.983 64.028-143.011 143.011-143.011 11.764 0 23.355 1.424 34.586 4.215 9.467 2.352 15.3 11.859 13.109 21.364-18.945 82.192-81.543 147.962-162.523 171.089zm155.219-300.974c4.593 12.989-6.614 26.071-20.153 23.529-.664-.125-2.029-.372-4.055-.724a800.403 800.403 0 0 0-11.963-1.977c-13.02-2.058-27.71-4.119-43.742-6.044-45.8-5.499-93.095-8.797-139.241-8.797s-93.441 3.3-139.241 8.8c-16.032 1.925-30.722 3.987-43.742 6.046-4.54.718-8.541 1.383-11.963 1.978-2.026.352-3.391.599-4.055.724-13.54 2.544-24.747-10.539-20.155-23.528 32.56-92.091 119.887-154.907 219.156-154.907 99.267-.001 186.592 62.812 219.154 154.9zM237.811 526.754C157.651 503.017 95.938 437.42 77.318 355.76c-2.191-9.609 3.809-19.179 13.413-21.393a143.394 143.394 0 0 1 32.244-3.654c78.983 0 143.011 64.028 143.011 143.011 0 14.029-2.026 27.807-5.972 41.009-2.822 9.442-12.754 14.819-22.203 12.021z" clip-rule="evenodd" fill="#ffffff" opacity="1" data-original="#000000" class=""></path></g></svg>